<?xml version="1.0" ?><svg id="Слой_1" style="enable-background:new 0 0 181.4 181.4;" version="1.1" viewBox="0 0 181.4 181.4" xml:space="preserve" xmlns="http://www.w3.org/2000/svg" xmlns:xlink="http://www.w3.org/1999/xlink"><style type="text/css">
	.st0{fill-rule:evenodd;clip-rule:evenodd;fill:#FFFFFF;}
	.st1{fill-rule:evenodd;clip-rule:evenodd;fill:#3FC0F0;}
	.st2{fill-rule:evenodd;clip-rule:evenodd;fill:#3864AD;}
	.st3{fill:#3864AD;}
	.st4{fill-rule:evenodd;clip-rule:evenodd;fill:#FFCC07;}
	.st5{fill:none;stroke:#3864AD;stroke-width:5.6693;stroke-linecap:round;stroke-linejoin:round;stroke-miterlimit:22.9256;}
</style><g><path class="st0" d="M90.7,11.3c43.8,0,79.4,35.5,79.4,79.4c0,43.8-35.5,79.4-79.4,79.4c-43.8,0-79.4-35.5-79.4-79.4   C11.3,46.9,46.9,11.3,90.7,11.3"/><path class="st4" d="M110.6,124.7l5.7-2.8v5.7h-5.7V124.7z M110.6,102l5.7-2.8v5.7l-5.7,2.8V102z M110.6,113.4l5.7-2.8v5.7   l-5.7,2.8V113.4z M110.6,90.7l5.7-2.8v5.7l-5.7,2.8V90.7z M130.4,90.7l-36.9-8.5v48.2h36.9V90.7z"/><path class="st1" d="M73.7,127.6l11.3-5.7v5.7H73.7z M73.7,104.9L85,99.2v5.7l-11.3,5.7V104.9z M73.7,82.2L85,76.5v5.7l-11.3,5.7   V82.2z M73.7,116.2l11.3-5.7v5.7l-11.3,5.7V116.2z M73.7,93.5L85,87.9v5.7l-11.3,5.7V93.5z M51,62.4l30.5,4.6l-7.8,3.9v5.7L85,70.9   v-3.4l22.7,3.4v59.4H51V62.4z"/><path class="st3" d="M110.6,79.4h6.7c1.2-0.2,2.2-0.8,3-1.6c1-1,1.7-2.5,1.7-4c0-1.6-0.6-3-1.7-4c-1-1-2.5-1.7-4-1.7s-3,0.6-4,1.7   c-1,1-1.7,2.5-1.7,4V79.4z M121.9,127.6h5.7V85h-5.7V127.6z M110.6,127.6h5.7V85.1c-0.2,0-0.4,0-0.7-0.1h-5V127.6z M90.7,127.6   h14.2V82.2v-8.5v-8.5H90.7V127.6z M73.7,127.6H85V65.2H73.7V127.6z M53.9,127.6H68V65.2H53.9V127.6z M45.4,133.2   c-1.6,0-2.8-1.3-2.8-2.8c0-1.6,1.3-2.8,2.8-2.8h2.8V62.4c0-1.6,1.3-2.8,2.8-2.8h5.7c-1.8-2.4-2.9-5.3-2.9-8.5c0-3.9,1.6-7.4,4.2-10   c2.6-2.6,6.1-4.2,10-4.2c3.9,0,7.4,1.6,10,4.2c0.5,0.5,0.9,1,1.3,1.5c0.4-0.5,0.8-1.1,1.3-1.5c2.6-2.6,6.1-4.2,10-4.2   c3.9,0,7.4,1.6,10,4.2c2.6,2.6,4.2,6.1,4.2,10c0,3.2-1.1,6.1-2.9,8.5h5.7c1.6,0,2.8,1.3,2.8,2.8v1.5c1.7-1,3.6-1.5,5.7-1.5   c3.1,0,6,1.3,8,3.3c2.1,2.1,3.3,4.9,3.3,8c0,2-0.5,4-1.5,5.6h4.2c1.6,0,2.8,1.3,2.8,2.8v45.4h2.8c1.6,0,2.8,1.3,2.8,2.8   c0,1.6-1.3,2.8-2.8,2.8H87.9h-17H45.4z M73.7,144.6c-1.6,0-2.8-1.3-2.8-2.8c0-1.6,1.3-2.8,2.8-2.8h34c1.6,0,2.8,1.3,2.8,2.8   c0,1.6-1.3,2.8-2.8,2.8H73.7z M150.8,30.6C135.5,15.2,114.2,5.7,90.7,5.7c-23.5,0-44.7,9.5-60.1,24.9C15.2,46,5.7,67.2,5.7,90.7   c0,23.5,9.5,44.7,24.9,60.1c15.4,15.4,36.6,24.9,60.1,24.9c23.5,0,44.7-9.5,60.1-24.9c15.4-15.4,24.9-36.6,24.9-60.1   C175.7,67.2,166.2,46,150.8,30.6z M90.7,0c50.1,0,90.7,40.6,90.7,90.7c0,50.1-40.6,90.7-90.7,90.7S0,140.8,0,90.7   C0,40.6,40.6,0,90.7,0z M68,59.5L68,59.5h2.8h0h17h0h2.8h0c2.3,0,4.5-1,6-2.5c1.5-1.5,2.5-3.7,2.5-6c0-2.3-1-4.5-2.5-6   c-1.5-1.5-3.7-2.5-6-2.5c-2.3,0-4.5,1-6,2.5c-1.5,1.5-2.5,3.7-2.5,6c0,1.6-1.3,2.8-2.8,2.8c-1.6,0-2.8-1.3-2.8-2.8   c0-2.3-1-4.5-2.5-6c-1.5-1.5-3.7-2.5-6-2.5c-2.3,0-4.5,1-6,2.5c-1.5,1.5-2.5,3.7-2.5,6c0,2.3,1,4.5,2.5,6   C63.6,58.6,65.7,59.5,68,59.5z"/></g></svg>