<?xml version="1.0" ?><!DOCTYPE svg  PUBLIC '-//W3C//DTD SVG 1.1//EN'  'http://www.w3.org/Graphics/SVG/1.1/DTD/svg11.dtd'><svg enable-background="new 0 0 512 512" id="Layer_1" version="1.1" viewBox="0 0 512 512" xml:space="preserve" xmlns="http://www.w3.org/2000/svg" xmlns:xlink="http://www.w3.org/1999/xlink"><g id="Layer_1_1_"><path d="M494,256c0,131.4-106.6,238-238,238S18,387.4,18,256S124.6,18,256,18S494,124.6,494,256z" fill="#4DB6AC"/></g><path d="M283.9,289.2c0-13.3-10.8-24.1-24.1-24.1  s-24.1,10.8-24.1,24.1c0,8.3,4.2,15.5,10.5,19.9v26.2h27.1V309C279.8,304.7,283.9,297.4,283.9,289.2z" fill="none" stroke="#FFFFFF" stroke-miterlimit="10" stroke-width="8"/><path d="  M343,201.8" fill="none" stroke="#FFFFFF" stroke-linecap="square" stroke-linejoin="round" stroke-miterlimit="10" stroke-width="15"/><g><path d="   M375.3,221.8H136.7v133.9c0,22,17.9,40,40,40h158.5c22,0,40-17.9,40-40L375.3,221.8L375.3,221.8z" fill="none" stroke="#FFFFFF" stroke-linecap="square" stroke-linejoin="round" stroke-miterlimit="10" stroke-width="15"/><path d="   M171.1,220.8c-1.4-6.1-2.1-12.5-2.1-19c0-48,38.9-87,87-87c28.8,0,54.3,14,70.1,35.5" fill="none" stroke="#FFFFFF" stroke-linecap="square" stroke-linejoin="round" stroke-miterlimit="10" stroke-width="15"/></g></svg>