<?xml version="1.0" encoding="iso-8859-1"?>
<!-- Generator: Adobe Illustrator 16.0.0, SVG Export Plug-In . SVG Version: 6.00 Build 0)  -->
<!DOCTYPE svg PUBLIC "-//W3C//DTD SVG 1.1//EN" "http://www.w3.org/Graphics/SVG/1.1/DTD/svg11.dtd">
<svg xmlns="http://www.w3.org/2000/svg" xmlns:xlink="http://www.w3.org/1999/xlink" version="1.1" id="Capa_1" x="0px" y="0px" width="512px" height="512px" viewBox="0 0 612.002 612.002" style="enable-background:new 0 0 612.002 612.002;" xml:space="preserve">
<g>
	<g>
		<g>
			<path d="M299.014,343.833c-1.213,0.508-4.022,2.185-5.927,3.322c-6.51,3.889-10.714,6.271-14.894,6.271     c-0.279,0-0.548-0.011-0.81-0.033c-10.93-0.825-33.56-23.158-36.105-25.703c-13.9-13.903-24.247-25.51-20.675-37.76     c1.077-3.693,2.992-6.911,4.844-10.023c1.411-2.372,3.108-5.226,3.482-7.119c-0.774-1.341-1.381-2.496-1.681-3.076     l-16.875-26.476c-0.059-0.081-0.122-0.165-0.187-0.249c-2.978,1.503-7.347,3.772-11.173,5.79l-0.033,0.018     c-0.769,0.471-10.794,7.243,1.084,33.343c6.835,12.988,27.346,51.657,78.442,84.402l0.928,0.512     c6.212,3.438,20.757,11.482,32.547,11.482c5.372,0,9.171-1.655,11.925-5.207c3.401-5.581,4.817-8.748,5.403-10.424     c-7.089-4.574-26.6-17.233-28.786-18.652C300.231,344.102,299.575,343.845,299.014,343.833z" fill="#006DF0"/>
			<path d="M372.059,192.111H151.988c-15.211,0-27.584,12.373-27.584,27.581v181.013c0,15.211,12.375,27.584,27.584,27.584h220.071     c15.214,0,27.589-12.375,27.589-27.584V219.692C399.647,204.484,387.272,192.111,372.059,192.111z M330.462,377.799     c-4.739,6.384-11.374,8.663-18.479,8.663c-14.667,0-31.346-9.712-37.532-13.105c-50.98-32.603-72.617-70.832-81.504-87.727     c-16.004-34.975,2.369-43.864,2.369-43.864s12.622-6.661,15.118-7.704c0.206-0.087,0.425-0.127,0.647-0.127     c2.483,0,5.871,4.868,5.871,4.868l17.187,26.969c0,0,1.186,2.372,2.67,4.741c1.186,7.411-6.518,14.523-8.594,21.636     c-2.075,7.116,4.146,15.41,18.669,29.935c14.523,14.521,27.266,23.117,31.118,23.408c0.062,0.005,0.127,0.009,0.192,0.009     c4.043,0,15.583-8.904,19.37-9.488c0.48-0.074,0.955-0.104,1.411-0.104c3.204,0,5.703,1.592,5.703,1.592     s27.857,18.074,31.122,20.152C339.059,359.722,338.464,364.76,330.462,377.799z" fill="#006DF0"/>
			<path d="M96.286,273.28h4.864v-27.061c-1.485-0.071-3.213-0.146-4.799-0.187C89.082,258.632,93.994,269.423,96.286,273.28z" fill="#006DF0"/>
			<path d="M306.007,0C137.274,0,0.001,137.272,0.001,306.002c0,168.729,137.273,306,306.006,306     c168.727,0,305.994-137.271,305.994-306C612.001,137.272,474.732,0,306.007,0z M109.078,281.208H92.242l-1.19-1.513     c-4.993-6.348-11.462-22.847-0.189-39.848l1.176-1.774h2.128c4.154,0,10.91,0.42,11.197,0.436l3.716,0.233v42.466H109.078     L109.078,281.208z M407.574,400.705c0,19.533-15.985,35.512-35.517,35.512h-220.07c-19.533,0-35.512-15.979-35.512-35.512     V219.692c0-19.53,15.979-35.509,35.512-35.509h220.071c19.53,0,35.517,15.979,35.517,35.509L407.574,400.705L407.574,400.705z      M511.484,405.268l-93.594-64.117v-64.114l93.595-64.114L511.484,405.268L511.484,405.268z" fill="#006DF0"/>
			<polygon points="503.557,227.962 425.816,281.216 425.816,336.972 503.557,390.228    " fill="#006DF0"/>
		</g>
	</g>
</g>
<g>
</g>
<g>
</g>
<g>
</g>
<g>
</g>
<g>
</g>
<g>
</g>
<g>
</g>
<g>
</g>
<g>
</g>
<g>
</g>
<g>
</g>
<g>
</g>
<g>
</g>
<g>
</g>
<g>
</g>
</svg>
